# xmcd
#
# Track frame offsets: 
#        150
#        26240
#        39340
#        52485
#        59879
#        73807
#        84719
#        104226
#        115011
#        132221
#        146508
#        161728
#
# Disc length: 2323 seconds
#
# Revision: 0
# Processed by: cddbd v1.5.2PL0 Copyright (c) Steve Scherf et al.
# Submitted via: ExactAudioCopy v0.95b3
#
DISCID=c009110c
DTITLE=The Animals - The Animals (1st UK Animals album) 1964 FLAC
DYEAR=1900
DGENRE=
TTITLE0=01 The Animals - The Story Of Bo Diddley
TTITLE1=02 The Animals - Bury My Body
TTITLE2=03 The Animals - Dimples
TTITLE3=04 The Animals - I've Been Around
TTITLE4=05 The Animals - I'm In Love Again
TTITLE5=06 The Animals - The Girl Can't Help It
TTITLE6=07 The Animals - I'm Mad Again
TTITLE7=08 The Animals - She Said Yeah
TTITLE8=09 The Animals - The Right Time
TTITLE9=10 The Animals - Memphis Tennessee
TTITLE10=11 The Animals - Boom Boom
TTITLE11=12 The Animals - Around And Around
EXTD=
EXTT0=
EXTT1=
EXTT2=
EXTT3=
EXTT4=
EXTT5=
EXTT6=
EXTT7=
EXTT8=
EXTT9=
EXTT10=
EXTT11=
PLAYORDER=
